<svg width="1715" height="368" viewBox="0 0 1715 368" fill="none" xmlns="http://www.w3.org/2000/svg">
<rect width="1715" height="368" fill="#FEFCF0"/>
<circle cx="329" cy="203" r="84" fill="black"/>
<circle cx="300" cy="173" r="84" fill="#12F6B4"/>
<circle cx="604" cy="203" r="84" fill="black"/>
<circle cx="575" cy="173" r="84" fill="#F9CD0A"/>
<circle cx="879" cy="203" r="84" fill="black"/>
<circle cx="850" cy="173" r="84" fill="#EE3E06"/>
<circle cx="1154" cy="203" r="84" fill="black"/>
<circle cx="1125" cy="173" r="84" fill="#4A3DEE"/>
<circle cx="1429" cy="203" r="84" fill="black"/>
<circle cx="1400" cy="173" r="84" fill="#E07BC0"/>
<path d="M41.5622 40.6371V43.4325H32.6233V50.5836H40.2295V53.379H32.6233V63.0654H29.6329V40.6371H41.5622ZM48.3996 53.184V60.27H57.9885V63.0654H45.4092V40.6371H57.826V43.4325H48.3996V50.3885H56.7534V53.184H48.3996ZM74.0035 40.6371V43.4325H65.0647V50.5836H72.6708V53.379H65.0647V63.0654H62.0743V40.6371H74.0035ZM88.0654 63.4555C84.7283 63.4555 81.9329 62.3503 79.6792 60.14C77.4472 57.908 76.3312 55.1451 76.3312 51.8513C76.3312 48.5574 77.4472 45.8054 79.6792 43.595C81.9112 41.363 84.7066 40.247 88.0654 40.247C90.8609 40.247 93.2987 41.0596 95.379 42.6849C97.4593 44.2668 98.8245 46.3471 99.4746 48.9258H96.2892C95.7041 47.1489 94.6639 45.7403 93.1687 44.7002C91.6951 43.6384 89.9941 43.1075 88.0654 43.1075C85.5951 43.1075 83.5256 43.9417 81.857 45.6103C80.2101 47.2572 79.3866 49.3375 79.3866 51.8513C79.3866 54.365 80.2101 56.4453 81.857 58.0922C83.5256 59.7608 85.5951 60.5951 88.0654 60.5951C89.9941 60.5951 91.6951 60.075 93.1687 59.0348C94.6639 57.973 95.7041 56.5536 96.2892 54.7767H99.4746C98.8245 57.3337 97.4593 59.4249 95.379 61.0501C93.277 62.6537 90.8392 63.4555 88.0654 63.4555ZM115.365 40.6371V43.4325H106.426V50.5836H114.032V53.379H106.426V63.0654H103.435V40.6371H115.365ZM137.78 60.14C135.548 62.3503 132.764 63.4555 129.427 63.4555C126.089 63.4555 123.294 62.3503 121.04 60.14C118.808 57.908 117.692 55.1451 117.692 51.8513C117.692 48.5574 118.808 45.8054 121.04 43.595C123.272 41.363 126.068 40.247 129.427 40.247C132.764 40.247 135.548 41.363 137.78 43.595C140.034 45.8054 141.161 48.5574 141.161 51.8513C141.161 55.1234 140.034 57.8863 137.78 60.14ZM123.218 58.0922C124.887 59.7608 126.956 60.5951 129.427 60.5951C131.875 60.5951 133.934 59.7608 135.603 58.0922C137.271 56.4236 138.105 54.3433 138.105 51.8513C138.105 49.3592 137.271 47.2789 135.603 45.6103C133.934 43.9417 131.875 43.1075 129.427 43.1075C126.956 43.1075 124.887 43.9417 123.218 45.6103C121.571 47.2572 120.748 49.3375 120.748 51.8513C120.748 54.365 121.571 56.4453 123.218 58.0922Z" fill="black"/>
<path d="M235.459 160.572V180.205H239.977V183H227.495V180.205H232.501V164.082L227.495 166.26V163.107L233.379 160.572H235.459ZM251.988 171.363C253.029 171.862 253.852 172.598 254.459 173.574C255.087 174.549 255.401 175.643 255.401 176.857C255.401 178.72 254.74 180.28 253.419 181.537C252.118 182.772 250.493 183.39 248.543 183.39C246.571 183.39 244.935 182.772 243.635 181.537C242.334 180.259 241.684 178.699 241.684 176.857H244.74C244.74 177.897 245.097 178.774 245.812 179.489C246.549 180.183 247.459 180.53 248.543 180.53C249.626 180.53 250.526 180.183 251.241 179.489C251.978 178.774 252.346 177.897 252.346 176.857C252.346 175.686 251.978 174.722 251.241 173.964C250.504 173.205 249.561 172.826 248.413 172.826H245.78V169.998H248.413C249.431 169.998 250.266 169.662 250.916 168.99C251.587 168.297 251.923 167.419 251.923 166.358C251.923 165.426 251.598 164.646 250.948 164.017C250.298 163.367 249.496 163.042 248.543 163.042C247.568 163.042 246.755 163.356 246.105 163.985C245.477 164.613 245.162 165.404 245.162 166.358H242.107C242.107 164.602 242.714 163.14 243.927 161.969C245.141 160.778 246.679 160.182 248.543 160.182C250.406 160.182 251.934 160.778 253.126 161.969C254.361 163.14 254.979 164.602 254.979 166.358C254.979 167.441 254.708 168.427 254.166 169.315C253.624 170.204 252.899 170.887 251.988 171.363ZM271.575 160.572V163.367H262.636V170.518H270.242V173.314H262.636V183H259.646V160.572H271.575ZM284.917 171.363C286.001 171.905 286.857 172.674 287.485 173.671C288.135 174.646 288.46 175.73 288.46 176.922C288.46 178.764 287.778 180.302 286.413 181.537C285.069 182.772 283.379 183.39 281.342 183.39C279.305 183.39 277.615 182.772 276.271 181.537C274.928 180.302 274.256 178.764 274.256 176.922C274.256 175.708 274.559 174.614 275.166 173.639C275.794 172.663 276.661 171.905 277.766 171.363C276.834 170.843 276.087 170.128 275.523 169.218C274.982 168.308 274.711 167.311 274.711 166.227C274.711 164.494 275.339 163.064 276.596 161.937C277.875 160.767 279.457 160.182 281.342 160.182C283.205 160.182 284.776 160.767 286.055 161.937C287.334 163.085 287.973 164.516 287.973 166.227C287.973 167.333 287.702 168.34 287.16 169.25C286.618 170.139 285.871 170.843 284.917 171.363ZM283.877 164.05C283.205 163.378 282.36 163.042 281.342 163.042C280.302 163.042 279.446 163.378 278.774 164.05C278.102 164.7 277.766 165.523 277.766 166.52C277.766 167.517 278.102 168.351 278.774 169.023C279.446 169.695 280.302 170.031 281.342 170.031C282.36 170.031 283.205 169.695 283.877 169.023C284.571 168.329 284.917 167.495 284.917 166.52C284.917 165.523 284.571 164.7 283.877 164.05ZM278.449 179.424C279.207 180.161 280.172 180.53 281.342 180.53C282.512 180.53 283.465 180.161 284.202 179.424C284.982 178.666 285.372 177.745 285.372 176.662C285.372 175.556 284.982 174.635 284.202 173.899C283.465 173.162 282.512 172.793 281.342 172.793C280.172 172.793 279.207 173.162 278.449 173.899C277.69 174.657 277.311 175.578 277.311 176.662C277.311 177.745 277.69 178.666 278.449 179.424ZM303.157 171.103C304.414 171.407 305.432 172.1 306.212 173.184C306.992 174.267 307.382 175.524 307.382 176.954C307.382 178.709 306.787 180.15 305.595 181.277C304.403 182.426 302.94 183 301.207 183H292.69V160.572H300.264C301.911 160.572 303.276 161.103 304.36 162.164C305.465 163.226 306.017 164.57 306.017 166.195C306.017 167.235 305.746 168.21 305.205 169.12C304.685 170.031 304.002 170.691 303.157 171.103ZM299.549 163.27H295.583V170.096H299.549C300.459 170.096 301.261 169.771 301.954 169.12C302.626 168.449 302.962 167.636 302.962 166.683C302.962 165.707 302.637 164.895 301.987 164.245C301.337 163.595 300.524 163.27 299.549 163.27ZM295.583 180.302H300.524C301.607 180.302 302.507 179.934 303.222 179.197C303.959 178.46 304.327 177.55 304.327 176.467C304.327 175.383 303.959 174.484 303.222 173.769C302.507 173.032 301.607 172.663 300.524 172.663H295.583V180.302ZM317.711 168.763C319.77 168.763 321.482 169.456 322.847 170.843C324.234 172.23 324.927 173.974 324.927 176.076C324.927 178.178 324.212 179.923 322.782 181.31C321.373 182.697 319.596 183.39 317.451 183.39C315.306 183.39 313.529 182.697 312.12 181.31C310.712 179.901 310.008 178.157 310.008 176.076H313.063C313.063 177.333 313.475 178.395 314.298 179.262C315.143 180.107 316.194 180.53 317.451 180.53C318.73 180.53 319.77 180.107 320.572 179.262C321.417 178.417 321.839 177.355 321.839 176.076C321.839 174.798 321.417 173.736 320.572 172.891C319.77 172.046 318.73 171.623 317.451 171.623C316.693 171.623 315.945 171.807 315.208 172.176C314.472 172.544 313.919 173.01 313.551 173.574H310.463L311.503 160.572H323.465V163.367H314.201L313.648 170.226C314.688 169.25 316.043 168.763 317.711 168.763Z" fill="black"/>
<path d="M514.562 160.572V163.367H505.623V170.518H513.229V173.314H505.623V183H502.633V160.572H514.562ZM531.872 167.495C531.872 169.055 531.396 170.605 530.442 172.143L523.323 183H519.813L525.241 174.711C524.895 174.776 524.515 174.809 524.104 174.809C522.045 174.809 520.322 174.115 518.935 172.728C517.57 171.342 516.888 169.597 516.888 167.495C516.888 165.437 517.603 163.703 519.033 162.294C520.485 160.886 522.262 160.182 524.364 160.182C526.466 160.182 528.243 160.886 529.694 162.294C531.146 163.681 531.872 165.415 531.872 167.495ZM521.211 170.681C522.056 171.526 523.107 171.948 524.364 171.948C525.621 171.948 526.671 171.526 527.517 170.681C528.383 169.836 528.817 168.774 528.817 167.495C528.817 166.217 528.383 165.155 527.517 164.31C526.671 163.465 525.621 163.042 524.364 163.042C523.107 163.042 522.056 163.475 521.211 164.342C520.366 165.187 519.943 166.238 519.943 167.495C519.943 168.73 520.366 169.792 521.211 170.681ZM545.924 183.39C542.587 183.39 539.791 182.285 537.538 180.075C535.306 177.843 534.19 175.08 534.19 171.786C534.19 168.492 535.306 165.74 537.538 163.53C539.77 161.298 542.565 160.182 545.924 160.182C548.719 160.182 551.157 160.994 553.238 162.619C555.318 164.201 556.683 166.282 557.333 168.86H554.148C553.563 167.083 552.523 165.675 551.027 164.635C549.554 163.573 547.853 163.042 545.924 163.042C543.454 163.042 541.384 163.876 539.716 165.545C538.069 167.192 537.245 169.272 537.245 171.786C537.245 174.3 538.069 176.38 539.716 178.027C541.384 179.695 543.454 180.53 545.924 180.53C547.853 180.53 549.554 180.01 551.027 178.969C552.523 177.908 553.563 176.488 554.148 174.711H557.333C556.683 177.268 555.318 179.359 553.238 180.985C551.136 182.588 548.698 183.39 545.924 183.39ZM561.294 160.572H569.94C573.169 160.572 575.878 161.644 578.066 163.79C580.233 165.892 581.317 168.557 581.317 171.786C581.317 174.993 580.233 177.669 578.066 179.815C575.878 181.938 573.169 183 569.94 183H561.294V160.572ZM564.284 180.205H569.908C572.27 180.205 574.253 179.403 575.856 177.799C577.46 176.196 578.262 174.191 578.262 171.786C578.262 169.38 577.46 167.376 575.856 165.772C574.253 164.169 572.27 163.367 569.908 163.367H564.284V180.205ZM604.305 180.075C602.073 182.285 599.288 183.39 595.951 183.39C592.614 183.39 589.818 182.285 587.565 180.075C585.333 177.843 584.217 175.08 584.217 171.786C584.217 168.492 585.333 165.74 587.565 163.53C589.797 161.298 592.592 160.182 595.951 160.182C599.288 160.182 602.073 161.298 604.305 163.53C606.558 165.74 607.685 168.492 607.685 171.786C607.685 175.058 606.558 177.821 604.305 180.075ZM589.743 178.027C591.411 179.695 593.481 180.53 595.951 180.53C598.4 180.53 600.458 179.695 602.127 178.027C603.796 176.358 604.63 174.278 604.63 171.786C604.63 169.294 603.796 167.213 602.127 165.545C600.458 163.876 598.4 163.042 595.951 163.042C593.481 163.042 591.411 163.876 589.743 165.545C588.096 167.192 587.272 169.272 587.272 171.786C587.272 174.3 588.096 176.38 589.743 178.027ZM630.261 183H626.978L624.8 177.572H613.813L611.636 183H608.45L617.584 160.572H621.127L630.261 183ZM619.307 163.79L614.919 174.809H623.695L619.307 163.79Z" fill="black"/>
<path d="M784.623 173.119V180.205H794.212V183H781.633V160.572H794.05V163.367H784.623V170.323H792.977V173.119H784.623ZM801.288 173.119V180.205H810.877V183H798.298V160.572H810.715V163.367H801.288V170.323H809.642V173.119H801.288ZM824.129 171.363C825.17 171.862 825.993 172.598 826.6 173.574C827.228 174.549 827.542 175.643 827.542 176.857C827.542 178.72 826.882 180.28 825.56 181.537C824.259 182.772 822.634 183.39 820.684 183.39C818.712 183.39 817.076 182.772 815.776 181.537C814.475 180.259 813.825 178.699 813.825 176.857H816.881C816.881 177.897 817.238 178.774 817.954 179.489C818.69 180.183 819.6 180.53 820.684 180.53C821.767 180.53 822.667 180.183 823.382 179.489C824.119 178.774 824.487 177.897 824.487 176.857C824.487 175.686 824.119 174.722 823.382 173.964C822.645 173.205 821.702 172.826 820.554 172.826H817.921V169.998H820.554C821.572 169.998 822.407 169.662 823.057 168.99C823.729 168.297 824.064 167.419 824.064 166.358C824.064 165.426 823.739 164.646 823.089 164.017C822.439 163.367 821.637 163.042 820.684 163.042C819.709 163.042 818.896 163.356 818.246 163.985C817.618 164.613 817.303 165.404 817.303 166.358H814.248C814.248 164.602 814.855 163.14 816.068 161.969C817.282 160.778 818.82 160.182 820.684 160.182C822.548 160.182 824.075 160.778 825.267 161.969C826.502 163.14 827.12 164.602 827.12 166.358C827.12 167.441 826.849 168.427 826.307 169.315C825.766 170.204 825.04 170.887 824.129 171.363ZM834.777 173.119V180.205H844.366V183H831.787V160.572H844.204V163.367H834.777V170.323H843.131V173.119H834.777ZM867.211 180.075C864.979 182.285 862.194 183.39 858.857 183.39C855.52 183.39 852.725 182.285 850.471 180.075C848.239 177.843 847.123 175.08 847.123 171.786C847.123 168.492 848.239 165.74 850.471 163.53C852.703 161.298 855.498 160.182 858.857 160.182C862.194 160.182 864.979 161.298 867.211 163.53C869.465 165.74 870.592 168.492 870.592 171.786C870.592 175.058 869.465 177.821 867.211 180.075ZM852.649 178.027C854.317 179.695 856.387 180.53 858.857 180.53C861.306 180.53 863.365 179.695 865.033 178.027C866.702 176.358 867.536 174.278 867.536 171.786C867.536 169.294 866.702 167.213 865.033 165.545C863.365 163.876 861.306 163.042 858.857 163.042C856.387 163.042 854.317 163.876 852.649 165.545C851.002 167.192 850.179 169.272 850.179 171.786C850.179 174.3 851.002 176.38 852.649 178.027ZM881.015 168.763C883.073 168.763 884.785 169.467 886.15 170.876C887.537 172.263 888.231 173.996 888.231 176.076C888.231 178.178 887.516 179.923 886.085 181.31C884.677 182.697 882.9 183.39 880.755 183.39C878.631 183.39 876.843 182.697 875.391 181.31C873.961 179.923 873.246 178.178 873.246 176.076C873.246 174.43 873.723 172.88 874.676 171.428L881.957 160.572H885.565L879.975 168.86C880.321 168.795 880.668 168.763 881.015 168.763ZM877.569 179.262C878.436 180.107 879.498 180.53 880.755 180.53C882.012 180.53 883.062 180.107 883.908 179.262C884.753 178.373 885.175 177.312 885.175 176.076C885.175 174.82 884.753 173.769 883.908 172.923C883.062 172.057 882.012 171.623 880.755 171.623C879.498 171.623 878.436 172.046 877.569 172.891C876.724 173.736 876.301 174.798 876.301 176.076C876.301 177.355 876.724 178.417 877.569 179.262Z" fill="black"/>
<path d="M1067.46 175.166H1070.39V177.962H1067.46V183H1064.51V177.962H1054.07V175.751L1064.25 160.572H1067.46V175.166ZM1064.51 164.537L1057.49 175.166H1064.51V164.537ZM1073.95 160.572H1082.59C1085.82 160.572 1088.53 161.644 1090.72 163.79C1092.89 165.892 1093.97 168.557 1093.97 171.786C1093.97 174.993 1092.89 177.669 1090.72 179.815C1088.53 181.938 1085.82 183 1082.59 183H1073.95V160.572ZM1076.94 180.205H1082.56C1084.92 180.205 1086.91 179.403 1088.51 177.799C1090.11 176.196 1090.92 174.191 1090.92 171.786C1090.92 169.38 1090.11 167.376 1088.51 165.772C1086.91 164.169 1084.92 163.367 1082.56 163.367H1076.94V180.205ZM1106.89 171.363C1107.93 171.862 1108.75 172.598 1109.36 173.574C1109.99 174.549 1110.3 175.643 1110.3 176.857C1110.3 178.72 1109.64 180.28 1108.32 181.537C1107.02 182.772 1105.4 183.39 1103.44 183.39C1101.47 183.39 1099.84 182.772 1098.54 181.537C1097.24 180.259 1096.59 178.699 1096.59 176.857H1099.64C1099.64 177.897 1100 178.774 1100.71 179.489C1101.45 180.183 1102.36 180.53 1103.44 180.53C1104.53 180.53 1105.43 180.183 1106.14 179.489C1106.88 178.774 1107.25 177.897 1107.25 176.857C1107.25 175.686 1106.88 174.722 1106.14 173.964C1105.41 173.205 1104.46 172.826 1103.31 172.826H1100.68V169.998H1103.31C1104.33 169.998 1105.17 169.662 1105.82 168.99C1106.49 168.297 1106.83 167.419 1106.83 166.358C1106.83 165.426 1106.5 164.646 1105.85 164.017C1105.2 163.367 1104.4 163.042 1103.44 163.042C1102.47 163.042 1101.66 163.356 1101.01 163.985C1100.38 164.613 1100.06 165.404 1100.06 166.358H1097.01C1097.01 164.602 1097.62 163.14 1098.83 161.969C1100.04 160.778 1101.58 160.182 1103.44 160.182C1105.31 160.182 1106.84 160.778 1108.03 161.969C1109.26 163.14 1109.88 164.602 1109.88 166.358C1109.88 167.441 1109.61 168.427 1109.07 169.315C1108.53 170.204 1107.8 170.887 1106.89 171.363ZM1126.48 160.572V163.367H1117.54V170.518H1125.14V173.314H1117.54V183H1114.55V160.572H1126.48ZM1142.25 160.572V163.367H1133.31V170.518H1140.92V173.314H1133.31V183H1130.32V160.572H1142.25ZM1144.93 163.367V160.572H1159.56V162.879L1150.1 183H1146.75L1156.01 163.367H1144.93Z" fill="black"/>
<path d="M1342.56 161.572V164.367H1333.62V171.518H1341.23V174.314H1333.62V184H1330.63V161.572H1342.56ZM1345.24 164.367V161.572H1359.87V163.879L1350.41 184H1347.06L1356.32 164.367H1345.24ZM1372.86 172.363C1373.94 172.905 1374.79 173.674 1375.42 174.671C1376.07 175.646 1376.4 176.73 1376.4 177.922C1376.4 179.764 1375.72 181.302 1374.35 182.537C1373.01 183.772 1371.32 184.39 1369.28 184.39C1367.24 184.39 1365.55 183.772 1364.21 182.537C1362.87 181.302 1362.19 179.764 1362.19 177.922C1362.19 176.708 1362.5 175.614 1363.1 174.639C1363.73 173.663 1364.6 172.905 1365.7 172.363C1364.77 171.843 1364.02 171.128 1363.46 170.218C1362.92 169.308 1362.65 168.311 1362.65 167.227C1362.65 165.494 1363.28 164.064 1364.53 162.937C1365.81 161.767 1367.39 161.182 1369.28 161.182C1371.14 161.182 1372.71 161.767 1373.99 162.937C1375.27 164.085 1375.91 165.516 1375.91 167.227C1375.91 168.333 1375.64 169.34 1375.1 170.25C1374.56 171.139 1373.81 171.843 1372.86 172.363ZM1371.82 165.05C1371.14 164.378 1370.3 164.042 1369.28 164.042C1368.24 164.042 1367.38 164.378 1366.71 165.05C1366.04 165.7 1365.7 166.523 1365.7 167.52C1365.7 168.517 1366.04 169.351 1366.71 170.023C1367.38 170.695 1368.24 171.031 1369.28 171.031C1370.3 171.031 1371.14 170.695 1371.82 170.023C1372.51 169.329 1372.86 168.495 1372.86 167.52C1372.86 166.523 1372.51 165.7 1371.82 165.05ZM1366.39 180.424C1367.15 181.161 1368.11 181.53 1369.28 181.53C1370.45 181.53 1371.4 181.161 1372.14 180.424C1372.92 179.666 1373.31 178.745 1373.31 177.662C1373.31 176.556 1372.92 175.635 1372.14 174.899C1371.4 174.162 1370.45 173.793 1369.28 173.793C1368.11 173.793 1367.15 174.162 1366.39 174.899C1365.63 175.657 1365.25 176.578 1365.25 177.662C1365.25 178.745 1365.63 179.666 1366.39 180.424ZM1390.28 172.363C1391.37 172.905 1392.22 173.674 1392.85 174.671C1393.5 175.646 1393.83 176.73 1393.83 177.922C1393.83 179.764 1393.14 181.302 1391.78 182.537C1390.43 183.772 1388.74 184.39 1386.71 184.39C1384.67 184.39 1382.98 183.772 1381.64 182.537C1380.29 181.302 1379.62 179.764 1379.62 177.922C1379.62 176.708 1379.92 175.614 1380.53 174.639C1381.16 173.663 1382.03 172.905 1383.13 172.363C1382.2 171.843 1381.45 171.128 1380.89 170.218C1380.35 169.308 1380.08 168.311 1380.08 167.227C1380.08 165.494 1380.7 164.064 1381.96 162.937C1383.24 161.767 1384.82 161.182 1386.71 161.182C1388.57 161.182 1390.14 161.767 1391.42 162.937C1392.7 164.085 1393.34 165.516 1393.34 167.227C1393.34 168.333 1393.07 169.34 1392.52 170.25C1391.98 171.139 1391.24 171.843 1390.28 172.363ZM1389.24 165.05C1388.57 164.378 1387.73 164.042 1386.71 164.042C1385.67 164.042 1384.81 164.378 1384.14 165.05C1383.47 165.7 1383.13 166.523 1383.13 167.52C1383.13 168.517 1383.47 169.351 1384.14 170.023C1384.81 170.695 1385.67 171.031 1386.71 171.031C1387.73 171.031 1388.57 170.695 1389.24 170.023C1389.94 169.329 1390.28 168.495 1390.28 167.52C1390.28 166.523 1389.94 165.7 1389.24 165.05ZM1383.81 180.424C1384.57 181.161 1385.54 181.53 1386.71 181.53C1387.88 181.53 1388.83 181.161 1389.57 180.424C1390.35 179.666 1390.74 178.745 1390.74 177.662C1390.74 176.556 1390.35 175.635 1389.57 174.899C1388.83 174.162 1387.88 173.793 1386.71 173.793C1385.54 173.793 1384.57 174.162 1383.81 174.899C1383.06 175.657 1382.68 176.578 1382.68 177.662C1382.68 178.745 1383.06 179.666 1383.81 180.424ZM1398.06 161.572H1406.7C1409.93 161.572 1412.64 162.644 1414.83 164.79C1416.99 166.892 1418.08 169.557 1418.08 172.786C1418.08 175.993 1416.99 178.669 1414.83 180.815C1412.64 182.938 1409.93 184 1406.7 184H1398.06V161.572ZM1401.05 181.205H1406.67C1409.03 181.205 1411.01 180.403 1412.62 178.799C1414.22 177.196 1415.02 175.191 1415.02 172.786C1415.02 170.38 1414.22 168.376 1412.62 166.772C1411.01 165.169 1409.03 164.367 1406.67 164.367H1401.05V181.205ZM1433.85 176.166H1436.78V178.962H1433.85V184H1430.89V178.962H1420.46V176.751L1430.63 161.572H1433.85V176.166ZM1430.89 165.537L1423.87 176.166H1430.89V165.537Z" fill="black"/>
</svg>
