<svg width="1624" height="390" viewBox="0 0 1624 390" fill="none" xmlns="http://www.w3.org/2000/svg">
<circle cx="331.5" cy="213.5" r="50.5" fill="#EE3E06"/>
<circle cx="469.5" cy="213.5" r="50.5" fill="#EE3E06"/>
<circle cx="607.5" cy="213.5" r="50.5" fill="#EE3E06"/>
<circle cx="745.5" cy="213.5" r="50.5" fill="#EE3E06"/>
<circle cx="883.5" cy="213.5" r="50.5" fill="#EE3E06"/>
<circle cx="1021.5" cy="213.5" r="50.5" fill="#EE3E06"/>
<circle cx="1159.5" cy="213.5" r="50.5" fill="#EE3E06"/>
<circle cx="1297.5" cy="213.5" r="50.5" fill="#EE3E06"/>
<circle cx="1435.5" cy="213.5" r="50.5" fill="#EE3E06"/>
<circle cx="1573.5" cy="213.5" r="50.5" fill="#EE3E06"/>
<path d="M195 0C290.698 0 370.294 68.9369 386.841 159.86L195 206L377.913 262.726C350.389 337.035 278.882 390 195 390C87.3045 390 0 302.696 0 195C0 87.3045 87.3045 0 195 0Z" fill="#F9CD0A"/>
</svg>
