<svg width="314" height="313" viewBox="0 0 314 313" fill="none" xmlns="http://www.w3.org/2000/svg">
<path d="M156.962 0L166.864 98.1609L208.102 8.53378L185.595 104.591L253.7 33.2104L201.223 116.755L288.816 71.3557L212.055 133.334L309.642 118.836L216.916 152.532L313.924 170.506L215.281 172.268L301.196 220.767L207.326 190.404L272.838 264.172L193.913 204.974L231.924 296.017L176.496 214.4L182.886 312.852L156.962 217.66L131.038 312.852L137.428 214.4L82.0002 296.017L120.011 204.974L41.0854 264.172L106.598 190.404L12.7276 220.767L98.6431 172.268L-0.000137329 170.506L97.0077 152.532L4.28137 118.836L101.869 133.334L25.1082 71.3557L112.701 116.755L60.2234 33.2104L128.329 104.591L105.822 8.53378L147.06 98.1609L156.962 0Z" fill="#EE3E06"/>
</svg>
