<svg width="247" height="248" viewBox="0 0 247 248" fill="none" xmlns="http://www.w3.org/2000/svg">
<path d="M75.23 9.2073L112.018 77.6173L114.997 9.41935e-05L127.58 76.6486L155.6 4.20424L142.613 80.7852L192.637 21.3642L155.488 89.5789L222.096 49.6204L164.81 102.077L240.784 85.9108L169.569 116.924L246.676 126.303L169.25 132.513L239.133 166.419L163.886 147.152L218.973 201.913L154.059 159.258L188.381 228.938L140.834 167.516L150.671 244.565L125.644 171.033L109.93 247.101L110.136 169.427L70.5738 236.271L95.9886 162.872L36.866 213.249L84.7364 152.08L12.4598 180.53L77.5983 138.218L0.000103741 141.658L75.3478 122.789L0.836986 100.848L78.2289 107.466L14.8798 62.5196L85.9292 93.9089L40.6068 30.8281L97.6145 83.5864L75.23 9.2073Z" fill="#12F6B4"/>
</svg>
